# xmcd CD database file
#
# Track frame offsets:
#	150
#	25602
#	43215
#	74492
#	100975
#	135235
#	160947
#	188585
#	213480
#	242535
#	264867
#
# Disc length: 3966 seconds
#
# Revision: 1
# Processed by: cddbd v1.5.2PL0 Copyright (c) Steve Scherf et al.
# Submitted via: CDex 1.79
#
DISCID=8e0f7c0b
DTITLE=Jan Kaspersen Quintet - Heavy Smoke
DYEAR=1992
DGENRE=Jazz
TTITLE0=I Mean You
TTITLE1=Chopped In The Can
TTITLE2=Tea For Two
TTITLE3=Heavy Smoke
TTITLE4=Frogwise
TTITLE5=Cross Game
TTITLE6=Rythm-A-Ning
TTITLE7=Bodyshocking
TTITLE8=A Flower Is A Lovesome Thing
TTITLE9=Uncle D.
TTITLE10=My Melancholy Baby
EXTD=YEAR: 1992
EXTT0=
EXTT1=
EXTT2=
EXTT3=
EXTT4=
EXTT5=
EXTT6=
EXTT7=
EXTT8=
EXTT9=
EXTT10=
PLAYORDER=
